<svg width="73" height="40" viewBox="0 0 73 40" fill="none" xmlns="http://www.w3.org/2000/svg">
<g clip-path="url(#clip0_1_17)">
<path d="M73 27.4783C71.9621 31.3044 68.8483 33.0435 65.7346 34.7826C62.2749 36.5218 58.4692 37.5652 54.3175 38.2609C46.0142 40 37.3649 40.3478 29.0616 39.6522C23.1801 39.3044 17.2986 38.2609 11.763 36.5218C9.68721 35.8261 7.61138 35.1304 5.88152 34.087C5.18958 33.7391 4.49764 33.3913 3.80569 32.6957C3.45972 32.6957 3.11375 32.3478 2.76778 32L2.42181 31.6522C1.38389 30.6087 0.691949 29.5652 0.345978 28.1739C-0.345965 26.087 0.691949 24 2.07584 22.2609C3.80569 20.1739 6.22749 18.7826 8.64929 18.087C10.3792 17.3913 12.109 16.6957 13.8389 16C14.1848 16 14.1848 16 14.1848 15.6522L14.5308 15.3044C17.9905 6.95654 23.872 2.08697 32.5213 0.347839C43.2464 -1.73912 54.3175 4.86958 58.1232 14.9565C58.4692 15.6522 58.8152 16 59.1611 16C59.5071 16 59.8531 16.3478 60.1991 16.3478C60.891 16.6957 61.5829 16.6957 62.2749 17.0435C63.3128 17.3913 64.3507 17.7391 65.3886 18.4348C66.0806 18.7826 66.7725 19.1304 67.4645 19.4783C69.8863 20.8696 71.9621 22.6087 72.654 25.7391V27.4783H73Z" fill="url(#paint0_linear_1_17)"/>
</g>
<defs>
<linearGradient id="paint0_linear_1_17" x1="-18.6973" y1="-19.6636" x2="53.7948" y2="40.5766" gradientUnits="userSpaceOnUse">
<stop stop-color="#F4A82F"/>
<stop offset="0.3544" stop-color="#F4A730"/>
<stop offset="0.511" stop-color="#F3A234"/>
<stop offset="0.6286" stop-color="#F29939"/>
<stop offset="0.7268" stop-color="#F18D40"/>
<stop offset="0.8128" stop-color="#EF7D46"/>
<stop offset="0.8903" stop-color="#EE684D"/>
<stop offset="0.9599" stop-color="#EC4850"/>
<stop offset="1" stop-color="#EC2B52"/>
</linearGradient>
<clipPath id="clip0_1_17">
<rect width="73" height="40" fill="white"/>
</clipPath>
</defs>
</svg>
